<?xml version="1.0" encoding="UTF-8"?>
<svg xmlns="http://www.w3.org/2000/svg" viewBox="0 0 164 164">
  <defs>
    <linearGradient id="icon-gradient" x1="0%" y1="50%" x2="100%" y2="50%">
      <stop offset="20%" stop-color="#1f2730"/>
      <stop offset="100%" stop-color="#569068"/>
    </linearGradient>
  </defs>
  <path fill="url(#icon-gradient)" d="M163.1,54.5h0c-5.3-3-11.2-6.1-17.7-9-2.5-1.1-5.2-2.2-7.8-3.1-.6-1.6-1.2-3.2-1.9-4.8-.4-1-.8-1.9-1.2-2.9-2.7-6.2-5.8-12-9-17.3-12.9-21.5-44.7-21.8-57.8-.4-3.2,5.3-6.4,11.1-9.4,17.5-.4,1-.9,1.9-1.3,2.9-.7,1.5-1.3,3.1-1.9,4.8-2.7,1-5.3,2.1-7.9,3.2-6.8,2.9-13,6.3-18.8,9.8-21.4,13-20.7,43.8,1.3,56,5.3,2.9,11.2,5.8,17.6,8.5,2.6,1.1,5.2,2.1,7.9,3,1,2.6,2.1,5.2,3.3,7.7,2.9,6.2,6.1,12,9.5,17.4,13.4,21.2,45.1,21,57.8-.6,3-5.1,6-10.8,8.7-16.9-5.7,1.8-11.6,3.3-17.8,4.3-6.9,12.9-14.7,22.9-19.7,28.7-2.5-2.9-5.8-6.8-9.4-11.6-3.6-4.8-7.4-10.5-11-16.9-1.3-2.3-2.5-4.6-3.7-7-2.5-5-4.7-10.3-6.6-15.8-.8-2.4-1.5-4.8-2.1-7.2-1.8-7.1-2.9-14.6-2.9-22.3s1.1-14.9,2.8-22c-5.5,1.9-10.8,4.3-15.7,6.8-.8,5-1.2,10-1.2,15.2s.4,10.6,1.3,15.8c.4,2.6.9,5.1,1.5,7.6-2.5-1.1-4.9-2.3-7.3-3.5-13.2-6.8-23.5-14.4-29.4-19.2,5.9-5,16.2-12.9,29.3-19.9,2.3-1.2,4.8-2.5,7.3-3.6,5.1-2.4,10.6-4.6,16.4-6.4,2.4-.8,5-1.4,7.5-2,7.2-1.7,14.8-2.8,22.6-2.8s15.6,1.1,22.9,2.8c-1.7-4.7-3.7-9.3-5.8-13.5-.3-.6-.6-1.2-.9-1.8-5.3-.8-10.7-1.2-16.2-1.2s-10.5.4-15.6,1.2c-2.7.4-5.3.8-7.9,1.4,1.2-2.4,2.4-4.8,3.7-7.1,7.2-12.8,15.4-22.8,20.4-28.6,5,5.8,12.8,15.9,19.7,28.7,1.2,2.3,2.4,4.6,3.5,7,0,.1.1.3.2.4,2.3,4.9,4.4,10.1,6.1,15.5.8,2.4,1.4,4.8,2,7.3,1.7,7,2.7,14.4,2.7,21.9s-1,15.1-2.8,22.2c-.6,2.4-1.3,4.8-2,7.2-2.4.7-4.9,1.4-7.4,2-7.3,1.7-14.9,2.7-22.8,2.7s-15.3-1-22.5-2.6c2,5.4,4.4,10.5,7,15.3,5.1.7,10.3,1.1,15.6,1.1s10.9-.4,16.1-1.2c2.7-.4,5.2-.9,7.8-1.4,6.1-1.3,11.9-3,17.4-5,2.7-.9,5.3-1.9,7.8-3,6.2-2.6,12.1-5.6,17.5-8.7,22-12.6,22.3-43.5.4-56.3ZM167.1,91.8h0c-5,3.4-10.9,7-17.4,10.3-2.3,1.2-4.7,2.4-7.2,3.4.6-2.5,1-5,1.4-7.6.8-5.1,1.2-10.4,1.2-15.8s-.4-10.2-1.1-15.2c-.4-2.6-.9-5.1-1.4-7.7,2.5,1.2,4.9,2.4,7.2,3.6,13.1,7,23.4,14.9,29.3,19.9-3,2.4-7,5.5-12,8.9Z"/>
</svg>
